<svg width="171" height="225" fill="none" xmlns="http://www.w3.org/2000/svg"><path d="M122.623 159.454c-.569.196-1.112.378-1.623.546.506-.194 1.044-.373 1.623-.546 10.229-3.515 29.223-11.336 34.733-18.584 7.271-9.566 8.079-23.117-4.847-23.117-12.927 0-17.774 7.174-11.311 19.928-7.81-8.768-14.584-26.942 9.976-29.493 30.701-3.188 21.796 35.073 0 43.044-15.62 5.712-23.574 6.734-28.551 8.222Z" fill="#8C5845"/><path d="M.5208 225c.121-.878.295-1.801.5264-2.76 1.9162-9.046 7.0649-25.438 16.2579-34.073 12.7881-12.01 27.1747-6.405 59.944-12.01 26.2159-4.484 37.5649-39.769 39.9629-56.851-49.8736 14.093-88.9837 2.669-102.3046-4.804-6.6605-2.669-18.0631-9.769-10.3903-16.8152 6.6655-6.1212 35.9302-8.2542 55.2014-8.7087.933-2.2077 2.2354-4.5086 3.9433-6.5048 4.7956-5.605 23.1784-8.0071 25.5761-25.6228C91.1561 42.758 67 40 56.4686 35.2313 40.4835 26.2633 48.7424 8.0071 54.87 0c-3.197 7.2064-7.9925 20.8185 7.1933 27.2242 12.1487 5.1246 23.1784 14.9466 27.1746 19.2171 27.1751 24.0213-7.1932 32.0285-19.9813 39.2349-1.8799 1.0594-3.3748 2.135-4.5512 3.2 1.9204-.0335 3.8026-.031 5.6289.0106h.0003a475.1268 475.1268 0 0 0-2.6765-.0078c-.9386 0-1.9318.0049-2.9724.0151-5.2026 4.7242-4.1427 9.2366-2.6224 11.1949-16.7843 0-35.6879 1.601-32.4909 3.203 3.197 1.601 33.2902 6.406 75.6506 0 42.36-6.4058.279-13.6045-34.8884-14.4052h-.0003c-1.8263-.0416-3.7085-.0441-5.6289-.0106l-.0197.0179a303.9954 303.9954 0 0 1 2.9724-.0151c.8435 0 1.7377.0025 2.6765.0078 17.4457.0979 50.3424 1.1493 61.2634 4.7965 14.387 4.8043-18.49 14.4127-48.7541 16.0147-30.2642 1.601-51.1522-2.403-54.3492-3.203-3.197-.801-9.591-3.203-2.3978-6.406 5.7547-2.5623 23.7112-2.6691 31.9702-2.4022-.512-1.0257-.0402-4.6797 1.6255-8.6472-26.727 1.2576-57.6741 8.6189-48.7815 14.2524 44.2374 24.021 105.7679 6.139 127.0809-3.203.64 62.776-39.163 84.075-59.1443 86.477-54.2812-6.042-73.954 19.737-77.8005 35.674C.831 223.261.656 224.188.5208 225Z" fill="#8C5845"/><path d="M9.3126 145.73c-3.7298-8.808-10.3903-29.306-7.1932-40.837-2.6642 7.207-4.9554 25.463 7.1932 40.837Z" fill="#8C5845"/></svg>